<?xml version="1.0" encoding="utf-8"?>
<!-- Generator: Adobe Illustrator 19.2.1, SVG Export Plug-In . SVG Version: 6.00 Build 0)  -->
<svg version="1.1" id="Layer_1" xmlns="http://www.w3.org/2000/svg" xmlns:xlink="http://www.w3.org/1999/xlink" x="0px" y="0px"
	 viewBox="0 0 150 75" style="enable-background:new 0 0 150 75;" xml:space="preserve">
<style type="text/css">
	.st0{fill:#FFFFFF;}
	.st1{fill:none;stroke:#000000;stroke-width:2;stroke-miterlimit:10;}
	.st2{fill:none;stroke:#000000;stroke-width:2;stroke-linecap:round;stroke-miterlimit:10;}
</style>
<g>
	<path class="st0" d="M148.1,39.9c0.1-2.6-0.6-5.3-2.7-7.8c-4.6-5.5-12.8-8.6-19.5-10.4c-1.1-0.3-2.1-0.3-3,0
		c-1.5-0.4-3.1-0.1-4.4,0.6c-0.1-0.3-0.1-0.6-0.2-0.9c-0.4-1.4-1.2-2.4-2.2-2.9c-0.6-2.3-2.2-3.3-4.1-3.3c-0.1-0.1-0.1-0.1-0.1-0.2
		c-3.5-4.1-9-5.4-13.8-7.2c-5.2-1.9-10.2-4.4-15.8-4c-0.5-0.2-1-0.4-1.6-0.4c-7.2-0.9-14.4-2.3-21.6-1.4C58.7,2,58.3,2.1,58,2.2
		c0,0-0.1,0-0.1,0c-1.6-0.2-3.1-0.1-4.6,0c-0.3,0-0.6,0.1-0.9,0.2c-1.3,0-2.6-0.1-4-0.3c-1.1-0.1-2.1,0.3-2.9,0.9
		c-2.7-0.4-5.3,0-7.9,1.1c-0.4,0-0.8,0-1.1,0c-1.1,0-2.2,0.4-3,1c-8.3,1-15.8,4.7-23.3,8.6c-0.7,0.3-1.2,0.8-1.5,1.4
		c-1.3,0.5-2.2,1.4-2.5,2.5c-1.7,0.7-2.7,2.4-2.9,4.2c-1.4,1.1-2.3,2.8-1.8,5c0.1,0.4,0.2,0.7,0.3,1.1c-0.1,0.6-0.1,1.2,0,1.8
		C3.3,40.1,12.9,44,21.1,48.4c-0.4,1.2-0.6,2.3-0.7,3.5c-2.3,2.8-1.1,8.3,3.7,8.3c1.7,0,3-0.7,3.8-1.8c4.4-0.4,8.5-2.2,12.7-3.9
		c0.6,0.8,1.5,1.5,2.8,1.8c4.5,1,8.5,4.2,12.9,5.7c4,1.4,8.2,2.1,12.3,2.4c0.7,0.6,1.6,0.9,2.7,1c9.4,0.7,18.8,1.2,28.2,1.3
		c0.8,0,1.7,0,2.5,0c0.8,0.7,1.8,1.1,3.2,1.1c0.1,0,0.1,0,0.2,0c0.7,0.4,1.4,0.6,2.4,0.7c0.6,0,1.2,0,1.8,0c0.7,1.5,2.1,2.6,4.3,2.6
		c0.8,0,1.4-0.2,2-0.4c0.2,0.2,0.5,0.4,0.8,0.6c0.8,1.3,2.1,2.2,4.1,2.2c4.3,0,5.7-4.5,4.3-7.4c0-1.3-0.3-2.5-1.1-3.5
		c0.5-0.6,0.7-1.2,0.8-2c0.8-0.1,1.5-0.3,2.3-0.5c1.7-0.6,2.9-1.3,4.7-1.7c3.6-0.7,7.3-2.8,9.8-5.4c0.6-0.6,1-1.3,1.2-2
		c1.3-0.6,2.2-1.6,3.2-3c0.5-0.7,0.8-1.3,0.9-2c0.4-0.7,0.6-1.4,0.7-2.2C148.3,42.6,148.5,41.2,148.1,39.9z"/>
	<path class="st1" d="M138.9,43.8"/>
	<g>
		<path class="st2" d="M15.2,10.4c2.5-1,4.9-2.2,7.4-3.2 M22.6,7.2c3.3-0.8,6.6-2,9.8-2.8 M32.4,4.4C33,4.2,33.6,4.1,34.2,4
			c7.8-1.7,16-2.7,24.6-2.9c0.4,0,0.7-0.1,1-0.1c2.1,0,4.2,0,6.3,0c1.4,0.1,2.8,0.2,4.3,0.3c1,0.1,2,0.2,3,0.3 M80.5,2.4
			c5.6,0.9,10.9,2.2,15.7,3.8 M96.2,6.2c3,1.1,6,2.3,9,3.4 M105.2,9.6c2.4,1.6,4.8,3.1,7.2,4.7 M102.9,46.3c2-1.1,4.1-2.1,6.1-3.2
			 M73.4,1.5c2.4,0.3,4.7,0.6,7.1,0.9 M112.4,14.3c2.9,2.2,5.1,4.6,6.5,7.2c1.7,3.2,1.8,6.4,0.7,9.6c-1.5,4.5-5,8.5-10.6,12
			 M102.9,46.3c-0.7,0.3-1.3,0.6-2,0.9c-7,2.8-15.1,4.6-24,5.6c-7.4,0.8-14.9,0.8-22.4,0.5C52.3,53.2,50.2,53,48,53
			c-0.7,0-1.5,0.1-2.1,0.3c-8.1,2.2-16.1,4.4-24.1,6.7c-0.5,0.1-0.9,0.3-1.6,0.4c0-0.3-0.1-0.6-0.1-0.8c0-3.8,0-7.6,0-11.4
			c0-0.5-0.3-0.8-1.1-1.2C8.1,42.3,2.5,36.4,1.2,29.4C0,23.1,3.5,17.5,11.5,12.5c1.2-0.7,2.4-1.4,3.7-2.1"/>
		<g>
			<path class="st2" d="M119.4,20.7c5.7,0.3,10.7,1.2,14.4,3"/>
			<path class="st2" d="M45.6,58c-1.8-0.8-3.4-1.8-4.9-2.9"/>
			<path class="st2" d="M69.5,65.4c-2.9-0.4-5.5-1-8-1.6"/>
			<path class="st2" d="M133.9,23.7c4.8,2.4,8.7,5,11.3,7.9"/>
			<path class="st2" d="M145.2,31.5c1.9,3.3,3.3,6.3,3.8,8.7"/>
			<path class="st2" d="M149,40.2c0.2,4.4-2.1,8.4-6.8,12.3c-4,3.3-9.4,6-15.9,8.2c-0.9,0.3-1.2,0.6-1.2,1.1c0,3.8,0,7.6,0,11.3
				c0,0.3,0,0.5,0,0.9c-0.6-0.2-1.1-0.3-1.5-0.4c-7.9-2.3-15.9-4.7-23.8-7c-1-0.3-1.9-0.4-3.1-0.3c-9.2,0.6-18.3,0.5-27.2-0.9"/>
			<path class="st2" d="M61.5,63.8c-5.8-1.5-11-3.5-15.9-5.8"/>
		</g>
	</g>
</g>
</svg>
