<?xml version="1.0" encoding="utf-8"?>
<!-- Generator: Adobe Illustrator 19.2.1, SVG Export Plug-In . SVG Version: 6.00 Build 0)  -->
<svg version="1.1" id="Layer_1" xmlns="http://www.w3.org/2000/svg" xmlns:xlink="http://www.w3.org/1999/xlink" x="0px" y="0px"
	 viewBox="0 0 276.7 258.7" style="enable-background:new 0 0 276.7 258.7;" xml:space="preserve">
<style type="text/css">
	.st0{fill:none;stroke:#FF0000;stroke-width:5;stroke-linecap:round;stroke-linejoin:bevel;stroke-miterlimit:10;}
	.st1{fill:none;stroke:#C4C6C8;stroke-width:3;stroke-linecap:round;stroke-linejoin:bevel;stroke-miterlimit:10;}
	.st2{fill:none;stroke:#000000;stroke-linecap:round;stroke-linejoin:bevel;stroke-miterlimit:10;}
</style>
<g>
	<line class="st0" x1="111.7" y1="21.7" x2="109.5" y2="67.6"/>
	<line class="st0" x1="152.1" y1="170.7" x2="147.7" y2="219.6"/>
	<line class="st0" x1="219.9" y1="237.8" x2="152.1" y2="170.7"/>
	<line class="st0" x1="186" y1="159.5" x2="219.9" y2="237.8"/>
	<line class="st0" x1="238.2" y1="201.7" x2="186" y2="159.5"/>
	<line class="st0" x1="211.8" y1="149.8" x2="238.2" y2="201.7"/>
	<line class="st0" x1="274.2" y1="137.3" x2="211.8" y2="149.8"/>
	<line class="st0" x1="228.6" y1="112.7" x2="274.6" y2="137.3"/>
	<line class="st0" x1="218.1" y1="18.2" x2="171.7" y2="61.2"/>
	<line class="st0" x1="196.9" y1="64" x2="218.1" y2="18.2"/>
	<line class="st0" x1="227.7" y1="44.8" x2="196.9" y2="64"/>
	<line class="st0" x1="216.2" y1="83.8" x2="227.7" y2="44.8"/>
	<line class="st0" x1="273.8" y1="71.3" x2="216.2" y2="83.8"/>
	<line class="st0" x1="228.6" y1="112.7" x2="273.8" y2="71.3"/>
	<line class="st0" x1="65.4" y1="231" x2="128.8" y2="176.8"/>
	<line class="st0" x1="104.3" y1="167.2" x2="65.4" y2="231"/>
	<line class="st0" x1="60.5" y1="192.2" x2="104.3" y2="167.2"/>
	<line class="st0" x1="81.9" y1="140.6" x2="60.5" y2="192.2"/>
	<line class="st0" x1="38.6" y1="137.5" x2="81.9" y2="140.6"/>
	<line class="st0" x1="71.7" y1="122.5" x2="38.6" y2="137.5"/>
	<line class="st0" x1="12.1" y1="92.3" x2="71.7" y2="122.5"/>
	<line class="st0" x1="71.4" y1="100.3" x2="12.1" y2="92.3"/>
	<line class="st0" x1="55.7" y1="76.7" x2="88.9" y2="86.4"/>
	<line class="st0" x1="71.4" y1="100.3" x2="55.7" y2="76.7"/>
	<line class="st0" x1="72.3" y1="36.9" x2="88.9" y2="86.4"/>
	<line class="st0" x1="109.5" y1="67.6" x2="72.3" y2="36.9"/>
	<line class="st0" x1="147.7" y1="219.6" x2="128.8" y2="176.8"/>
	<line class="st0" x1="139.5" y1="72.6" x2="111.7" y2="21.7"/>
	<line class="st0" x1="161.6" y1="5.8" x2="139.5" y2="72.6"/>
	<line class="st0" x1="171.7" y1="61.2" x2="161.6" y2="5.8"/>
</g>
<g>
	<line class="st1" x1="113.1" y1="32.4" x2="111.1" y2="74.7"/>
	<line class="st1" x1="151.2" y1="169.4" x2="147" y2="214.2"/>
	<line class="st1" x1="214.9" y1="231" x2="151.2" y2="169.4"/>
	<line class="st1" x1="182.9" y1="159" x2="214.9" y2="231"/>
	<line class="st1" x1="232" y1="197.8" x2="182.9" y2="159"/>
	<line class="st1" x1="207.2" y1="150.1" x2="232" y2="197.8"/>
	<line class="st1" x1="265.8" y1="138.6" x2="207.2" y2="150.1"/>
	<line class="st1" x1="223" y1="116.1" x2="266.2" y2="138.6"/>
	<line class="st1" x1="213.2" y1="29.3" x2="169.6" y2="68.7"/>
	<line class="st1" x1="193.3" y1="71.3" x2="213.2" y2="29.3"/>
	<line class="st1" x1="222.2" y1="53.7" x2="193.3" y2="71.3"/>
	<line class="st1" x1="211.4" y1="89.5" x2="222.2" y2="53.7"/>
	<line class="st1" x1="265.5" y1="78" x2="211.4" y2="89.5"/>
	<line class="st1" x1="223" y1="116.1" x2="265.5" y2="78"/>
	<line class="st1" x1="69.7" y1="224.7" x2="129.3" y2="174.9"/>
	<line class="st1" x1="106.2" y1="166.1" x2="69.7" y2="224.7"/>
	<line class="st1" x1="65.1" y1="189.1" x2="106.2" y2="166.1"/>
	<line class="st1" x1="85.1" y1="141.7" x2="65.1" y2="189.1"/>
	<line class="st1" x1="44.5" y1="138.8" x2="85.1" y2="141.7"/>
	<line class="st1" x1="75.6" y1="125.1" x2="44.5" y2="138.8"/>
	<line class="st1" x1="19.5" y1="97.3" x2="75.6" y2="125.1"/>
	<line class="st1" x1="75.3" y1="104.7" x2="19.5" y2="97.3"/>
	<line class="st1" x1="60.5" y1="83" x2="91.8" y2="91.9"/>
	<line class="st1" x1="75.3" y1="104.7" x2="60.5" y2="83"/>
	<line class="st1" x1="76.2" y1="46.5" x2="91.8" y2="91.9"/>
	<line class="st1" x1="111.1" y1="74.7" x2="76.2" y2="46.5"/>
	<line class="st1" x1="147" y1="214.2" x2="129.3" y2="174.9"/>
	<line class="st1" x1="139.3" y1="79.2" x2="113.1" y2="32.4"/>
	<line class="st1" x1="160" y1="17.9" x2="139.3" y2="79.2"/>
	<line class="st1" x1="169.6" y1="68.7" x2="160" y2="17.9"/>
</g>
<g>
	<line class="st2" x1="113.4" y1="28.3" x2="111.4" y2="71.4"/>
	<line class="st2" x1="150.7" y1="168.1" x2="146.7" y2="213.9"/>
	<line class="st2" x1="213.2" y1="231" x2="150.7" y2="168.1"/>
	<line class="st2" x1="181.9" y1="157.5" x2="213.2" y2="231"/>
	<line class="st2" x1="230" y1="197.1" x2="181.9" y2="157.5"/>
	<line class="st2" x1="205.7" y1="148.4" x2="230" y2="197.1"/>
	<line class="st2" x1="263.2" y1="136.7" x2="205.7" y2="148.4"/>
	<line class="st2" x1="221.2" y1="113.7" x2="263.6" y2="136.7"/>
	<line class="st2" x1="211.6" y1="25.1" x2="168.8" y2="65.3"/>
	<line class="st2" x1="192" y1="68" x2="211.6" y2="25.1"/>
	<line class="st2" x1="220.4" y1="50" x2="192" y2="68"/>
	<line class="st2" x1="209.8" y1="86.6" x2="220.4" y2="50"/>
	<line class="st2" x1="262.9" y1="74.9" x2="209.8" y2="86.6"/>
	<line class="st2" x1="221.2" y1="113.7" x2="262.9" y2="74.9"/>
	<line class="st2" x1="70.8" y1="224.6" x2="129.3" y2="173.8"/>
	<line class="st2" x1="106.7" y1="164.8" x2="70.8" y2="224.6"/>
	<line class="st2" x1="66.3" y1="188.2" x2="106.7" y2="164.8"/>
	<line class="st2" x1="86" y1="139.8" x2="66.3" y2="188.2"/>
	<line class="st2" x1="46.1" y1="136.9" x2="86" y2="139.8"/>
	<line class="st2" x1="76.6" y1="122.9" x2="46.1" y2="136.9"/>
	<line class="st2" x1="21.6" y1="94.5" x2="76.6" y2="122.9"/>
	<line class="st2" x1="76.3" y1="102.1" x2="21.6" y2="94.5"/>
	<line class="st2" x1="61.8" y1="79.9" x2="92.5" y2="89"/>
	<line class="st2" x1="76.3" y1="102.1" x2="61.8" y2="79.9"/>
	<line class="st2" x1="77.2" y1="42.6" x2="92.5" y2="89"/>
	<line class="st2" x1="111.4" y1="71.4" x2="77.2" y2="42.6"/>
	<line class="st2" x1="146.7" y1="213.9" x2="129.3" y2="173.8"/>
	<line class="st2" x1="139.1" y1="76.1" x2="113.4" y2="28.3"/>
	<line class="st2" x1="159.4" y1="13.5" x2="139.1" y2="76.1"/>
	<line class="st2" x1="168.8" y1="65.3" x2="159.4" y2="13.5"/>
</g>
</svg>
